<svg xmlns="http://www.w3.org/2000/svg" xmlns:xlink="http://www.w3.org/1999/xlink" width="4674" zoomAndPan="magnify" viewBox="0 0 3505.5 1351.499965" height="1802" preserveAspectRatio="xMidYMid meet" version="1.0"><defs><clipPath id="813fc9d810"><path d="M 2630 156 L 3465 156 L 3465 1206.808594 L 2630 1206.808594 Z M 2630 156 " clip-rule="nonzero"/></clipPath></defs><path fill="#f6f6f6" d="M 2195.335938 1201.882812 L 1798.621094 171.234375 L 1829.378906 171.234375 L 2051.96875 743.652344 C 2116.332031 910.511719 2186.699219 1094.960938 2213.035156 1169.648438 L 2215.984375 1169.648438 C 2238 1102.335938 2321.429688 900.292969 2382.84375 747.972656 L 2612.699219 171.128906 L 2644.933594 171.128906 L 2232.101562 1201.777344 L 2195.441406 1201.777344 Z M 2195.335938 1201.882812 " fill-opacity="1" fill-rule="nonzero"/><g clip-path="url(#813fc9d810)"><path fill="#f6f6f6" d="M 3464.703125 929.578125 C 3419.300781 1070.101562 3316.800781 1216.523438 3073.78125 1216.523438 C 2775.136719 1216.523438 2630.1875 980.773438 2630.1875 692.351562 C 2630.1875 403.929688 2775.136719 156.488281 3082.523438 156.488281 C 3281.617188 156.488281 3419.300781 270.675781 3463.226562 458.078125 L 3432.46875 458.078125 C 3390.015625 294.0625 3266.976562 184.296875 3082.523438 184.296875 C 2786.828125 184.296875 2660.839844 421.417969 2660.839844 692.351562 C 2660.839844 948.539062 2788.199219 1188.609375 3075.148438 1188.609375 C 3274.246094 1188.609375 3384.117188 1075.894531 3433.835938 929.472656 L 3464.597656 929.472656 Z M 3464.703125 929.578125 " fill-opacity="1" fill-rule="nonzero"/></g><path fill="#f6f6f6" d="M 979.589844 687.191406 C 989.28125 645.582031 980.433594 595.96875 973.480469 554.460938 C 946.617188 392.976562 857.605469 254.453125 697.695312 198.203125 C 640.8125 178.1875 576.449219 168.074219 506.398438 168.074219 C 211.125 168.074219 12.765625 376.4375 12.765625 686.558594 C 12.765625 996.679688 211.125 1205.042969 506.398438 1205.042969 C 586.984375 1205.042969 668.304688 1190.714844 741.625 1156.585938 C 809.148438 1125.195312 868.035156 1077.160156 911.75 1016.800781 C 932.609375 988.042969 950.09375 956.863281 963.894531 924.207031 C 969.6875 910.617188 980.117188 892.078125 980.011719 877.226562 C 980.011719 863.425781 966.527344 852.996094 953.359375 853.207031 C 933.242188 853.523438 913.226562 853.734375 893.105469 853.839844 C 880.148438 853.839844 867.085938 853.839844 854.128906 853.839844 C 840.433594 854.367188 821.367188 860.160156 815.363281 872.378906 C 788.710938 926.523438 752.265625 974.347656 698.222656 1005.84375 C 641.550781 1038.816406 576.027344 1056.722656 508.609375 1057.671875 C 391.257812 1059.882812 244.9375 1006.6875 189.527344 853.417969 L 186.367188 844.992188 C 177.203125 820.65625 152.976562 756.085938 167.828125 734.699219 C 169.832031 731.855469 174.148438 726.90625 185.210938 726.90625 C 246.835938 726.90625 307.933594 726.90625 369.558594 726.90625 C 479.746094 726.90625 590.039062 726.800781 700.226562 726.90625 C 740.148438 726.90625 780.074219 726.90625 819.996094 726.90625 C 840.222656 726.90625 860.238281 726.90625 880.570312 726.90625 C 898.265625 726.90625 918.070312 727.746094 935.347656 724.902344 C 960.101562 720.164062 974.535156 707.839844 979.378906 687.191406 Z M 822 570.054688 C 816.839844 576.480469 809.359375 580.058594 801.035156 580.058594 L 203.433594 580.058594 C 187.210938 580.058594 175.519531 564.46875 179.941406 548.878906 C 223.238281 399.191406 336.269531 317.449219 502.289062 317.449219 C 682.632812 317.449219 795.03125 396.453125 827.476562 545.929688 C 829.375 554.566406 827.371094 563.3125 821.894531 570.054688 Z M 822 570.054688 " fill-opacity="1" fill-rule="nonzero"/><path fill="#f6f6f6" d="M 1797.671875 1053.5625 C 1745.003906 1053.351562 1682.429688 1053.246094 1618.277344 1053.984375 C 1605.109375 1053.984375 1591.941406 1054.195312 1578.773438 1054.40625 L 1498.1875 1055.460938 C 1446.886719 1056.09375 1395.585938 1056.828125 1344.175781 1057.039062 C 1343.757812 1057.039062 1343.335938 1057.039062 1343.019531 1057.039062 C 1317.527344 1057.039062 1304.570312 1052.300781 1300.882812 1041.765625 C 1299.617188 1038.183594 1299.195312 1035.128906 1305.519531 1030.285156 C 1398.429688 958.863281 1502.925781 904.191406 1595.3125 832.035156 C 1683.273438 763.351562 1774.601562 675.917969 1804.625 564.785156 C 1831.699219 464.503906 1804.308594 356.527344 1730.359375 283.105469 C 1647.351562 200.730469 1529.578125 168.074219 1415.074219 168.074219 C 1398.007812 168.074219 1381.046875 168.8125 1364.71875 170.183594 C 1337.648438 172.605469 1311.628906 177.03125 1287.503906 183.351562 C 1264.222656 189.460938 1242.101562 197.570312 1221.773438 207.367188 C 1202.285156 216.742188 1183.847656 227.910156 1166.890625 240.550781 C 1150.773438 252.664062 1135.8125 266.359375 1122.222656 281.421875 C 1109.476562 295.539062 1097.574219 311.234375 1087.039062 328.085938 C 1077.136719 343.78125 1068.183594 360.847656 1060.386719 378.753906 C 1047.640625 408.039062 1038.792969 438.90625 1032.367188 470.191406 C 1027.207031 495.472656 1021.832031 520.753906 1019.515625 546.457031 C 1017.9375 564.46875 1022.148438 579.535156 1043.113281 579.746094 C 1048.484375 579.746094 1053.855469 579.851562 1059.335938 579.953125 C 1082.828125 580.164062 1106.316406 579.847656 1129.808594 580.269531 C 1136.128906 580.375 1142.554688 580.058594 1148.875 580.058594 C 1154.878906 580.058594 1161.832031 580.691406 1167.835938 579.21875 C 1177.527344 576.792969 1181.636719 566.789062 1183.007812 557.519531 C 1184.902344 544.667969 1185.746094 531.710938 1188.167969 518.964844 C 1193.75 488.414062 1201.125 462.921875 1210.710938 441.011719 C 1221.667969 415.835938 1236.308594 393.503906 1254.324219 374.4375 C 1331.328125 291.324219 1502.191406 297.644531 1592.257812 358.425781 C 1629.128906 383.285156 1658.621094 422.578125 1664.734375 467.664062 C 1671.476562 518.121094 1649.5625 570.894531 1615.855469 610.082031 C 1556.757812 678.765625 1491.65625 718.792969 1422.867188 761.246094 C 1401.378906 774.414062 1379.679688 787.894531 1357.554688 802.433594 C 1245.578125 876.277344 1127.492188 954.542969 1022.992188 1028.175781 C 1013.089844 1035.128906 1007.191406 1046.609375 1007.191406 1058.726562 L 1007.191406 1167.332031 C 1007.191406 1187.976562 1024.046875 1204.832031 1044.585938 1204.832031 L 1797.671875 1204.832031 C 1810.523438 1204.832031 1821.058594 1194.402344 1821.058594 1181.445312 L 1821.058594 1076.949219 C 1821.058594 1064.097656 1810.523438 1053.5625 1797.671875 1053.457031 Z M 1797.671875 1053.5625 " fill-opacity="1" fill-rule="nonzero"/></svg>